<svg width="32" height="32" viewBox="0 0 32 32" fill="none" xmlns="http://www.w3.org/2000/svg">
<path d="M4.06497 21.797H6.29997V13.013H4.06596L4.06497 21.797ZM5.18496 9.35199C4.44496 9.35199 3.93896 9.87499 3.93896 10.56C3.93896 11.227 4.42496 11.75 5.16496 11.75C5.93996 11.75 6.42796 11.227 6.42796 10.56C6.40796 9.87499 5.93797 9.35199 5.18197 9.35199H5.18496ZM13.915 9.44199C10.488 9.44199 8.14497 12.075 8.14497 15.809C8.14497 19.379 10.308 21.994 13.735 21.994C17.09 21.994 19.561 19.668 19.561 15.592C19.561 12.129 17.469 9.44199 13.916 9.44199H13.915ZM13.86 20.21C11.732 20.21 10.487 18.244 10.487 15.773C10.487 13.266 11.659 11.228 13.86 11.228C16.078 11.228 17.214 13.392 17.214 15.683C17.214 18.227 16.007 20.21 13.86 20.21ZM25.695 14.727C24.073 14.097 23.369 13.663 23.369 12.725C23.369 12.022 23.981 11.265 25.389 11.265C26.526 11.265 27.369 11.607 27.805 11.841L28.345 10.057C27.703 9.73199 26.742 9.44399 25.413 9.44399C22.78 9.44399 21.12 10.959 21.12 12.944C21.12 14.694 22.4 15.756 24.403 16.478C25.955 17.038 26.565 17.578 26.565 18.498C26.565 19.49 25.768 20.158 24.338 20.158C23.201 20.158 22.118 19.798 21.4 19.382L20.916 21.222C21.584 21.619 22.918 21.982 24.196 21.982C27.336 21.982 28.812 20.292 28.812 18.337C28.835 16.587 27.807 15.523 25.695 14.729V14.727Z" fill="black"/>
</svg>
