<svg width="35" height="35" viewBox="0 0 35 35" fill="none" xmlns="http://www.w3.org/2000/svg">
<path d="M33.0447 26.1985C32.8375 25.8609 32.6303 25.5232 32.6303 25.1856C32.6303 24.5103 32.216 24.0038 31.5944 23.4973C31.3872 23.3285 30.9729 23.1597 30.7657 23.1597C32.0088 20.1208 30.1442 17.082 28.0724 14.8872C26.415 12.8613 23.9289 11.3419 24.1361 8.64068C24.1361 5.43299 24.5504 -0.475902 17.2992 0.0305745C9.84089 0.368226 11.9126 6.61477 11.7055 8.8095C11.7055 10.6666 10.6696 12.5237 9.01218 14.0431C8.59783 14.3807 8.18347 14.8872 7.9763 15.2249C5.90453 17.2508 4.86865 19.952 4.86865 22.4844C4.4543 22.822 4.03994 23.1597 3.83277 23.4973C3.62559 23.6662 3.41841 23.835 3.41841 24.0038C3.21124 24.1726 2.79688 24.3415 2.38253 24.5103C1.55382 24.6791 0.932294 25.0168 0.517941 25.6921C0.310765 26.1985 0.103588 26.8738 0.310765 27.5491C0.517941 27.8868 0.517941 28.2244 0.310765 28.7309C-0.103588 29.4062 -0.103588 30.2503 0.310765 31.0945C0.932294 31.7698 1.96818 31.9386 3.41841 32.1074C4.4543 32.1074 5.69735 32.4451 6.73324 32.7827C7.76912 33.2892 9.01218 33.6269 10.2552 33.6269C10.8768 33.6269 11.7055 33.458 12.327 33.2892C12.9485 32.9516 13.3629 32.6139 13.5701 32.1074C14.3988 32.1074 15.6418 31.7698 17.0921 31.7698C18.3351 31.7698 19.5782 32.1074 21.2356 31.9386C21.2356 32.1074 21.2356 32.2763 21.4428 32.4451C21.8571 33.2892 22.893 33.9645 24.1361 34.1333H24.5504C26.2078 33.9645 27.8652 33.2892 28.9011 32.2763C29.7298 31.601 30.7657 31.0945 31.8016 30.7568C33.0447 30.2503 33.8734 29.9127 34.0805 29.0686C34.2877 27.8868 33.8734 27.2115 33.0447 26.1985ZM18.7495 4.58886C19.9925 4.75769 21.0284 5.60182 20.8212 6.61477C20.8212 7.12125 20.6141 7.62773 20.1997 8.1342H19.9925C19.5782 7.96538 19.371 7.96538 19.1638 7.79655C19.371 7.62772 19.371 7.29007 19.5782 6.95242C19.5782 6.27712 19.1638 5.77064 18.7495 5.77064C18.1279 5.77064 17.7136 6.27712 17.7136 6.95242V7.12125C17.5064 6.95242 17.0921 6.95242 16.8849 6.7836V6.61477C16.6777 5.77064 17.5064 4.75769 18.7495 4.58886ZM18.1279 7.96538C18.3351 8.1342 18.7495 8.30303 18.9566 8.30303C19.1638 8.30303 19.5782 8.47185 19.7854 8.64068C20.1997 8.8095 20.6141 8.97833 20.6141 9.48481C20.6141 9.99128 19.9925 10.4978 18.7495 10.8354C18.3351 11.0042 18.1279 11.0042 17.9208 11.1731C17.2992 11.5107 16.6777 11.6795 15.849 11.6795C15.2275 11.6795 14.6059 11.3419 14.1916 11.0042C13.9844 10.8354 13.7772 10.6666 13.3629 10.4978C13.1557 10.3289 12.7414 9.99128 12.5342 9.48481C12.5342 9.31598 12.7414 9.14715 12.9485 8.97833C13.5701 8.64068 13.7772 8.47185 13.9844 8.30303L14.1916 8.1342C14.6059 7.62773 15.4347 7.29007 16.2634 7.29007C16.8849 7.4589 17.5064 7.62773 18.1279 7.96538ZM13.7772 4.92652C14.6059 4.92652 15.2275 5.60182 15.4347 6.7836V7.12125C15.2275 7.12125 14.8131 7.29007 14.6059 7.4589V7.12125C14.6059 6.61477 14.1916 6.10829 13.7772 6.27712C13.3629 6.27712 13.1557 6.7836 13.1557 7.29007C13.1557 7.62773 13.3629 7.79655 13.5701 7.96538C13.5701 7.96538 13.3629 8.1342 13.1557 8.1342C12.7414 7.79655 12.327 7.29007 12.327 6.7836C12.327 5.77064 12.9485 4.92652 13.7772 4.92652ZM11.7055 32.1074C10.2552 32.6139 8.39065 32.4451 7.14759 31.7698C5.90453 31.2633 4.86865 31.0945 3.41841 31.0945C2.38253 30.9257 1.34665 30.9257 1.13947 30.588C0.932294 30.2503 0.932294 29.7439 1.34665 28.8997C1.55382 28.3933 1.55382 27.8868 1.34665 27.3803C1.13947 26.8738 1.13947 26.5362 1.34665 26.0297C1.55382 25.5232 1.96818 25.3544 2.58971 25.1856C3.21124 25.0168 3.62559 24.8479 4.03994 24.5103C4.24712 24.3415 4.4543 24.1726 4.66147 23.835C5.283 23.1597 5.69735 22.822 6.31888 22.822C7.56194 22.9909 8.59783 24.5103 9.42653 26.0297C9.84089 26.5362 10.2552 27.2115 10.8768 27.718C11.7055 28.5621 12.7414 29.7439 12.7414 30.4192C12.7414 31.2633 12.327 31.7698 11.7055 32.1074ZM21.8571 28.3933C21.8571 28.5621 21.8571 28.5621 21.6499 28.7309C19.1638 30.2503 15.849 30.4192 13.1557 29.2374L11.9127 27.718C13.7772 27.5491 13.3629 25.5232 9.42653 23.4973C5.283 21.3026 8.18347 17.2508 9.63371 15.3937C9.84088 15.2249 9.84089 15.3937 9.01218 16.7443C8.39065 17.7573 7.14759 20.2896 8.805 22.1467C8.805 20.7961 9.21935 19.4455 9.84088 18.0949C11.2911 15.9002 12.327 13.3678 12.9485 10.8354C13.1557 11.0042 13.1557 11.0042 13.3629 11.0042C13.5701 11.1731 13.7772 11.3419 13.9844 11.3419C14.3988 11.8484 15.2275 12.0172 15.849 12.0172H16.0562C16.8849 12.0172 17.7136 11.8484 18.3351 11.3419C18.5423 11.1731 18.7495 11.0042 19.1638 11.0042C19.7854 10.8354 20.4069 10.4978 21.0284 9.99128C21.8571 12.186 22.6858 14.2119 23.9289 16.069C24.7576 17.4196 25.3791 18.7702 25.7935 20.2896C26.415 20.2896 27.2437 20.4585 27.8652 20.7961C29.5227 21.4714 30.1442 21.9779 29.937 22.822H29.5227C29.5227 22.3155 29.1083 21.8091 27.6581 21.3026C26.2078 20.7961 24.9648 20.7961 24.5504 21.9779C24.3432 21.9779 24.1361 22.1467 23.9289 22.1467C22.2715 22.822 22.2715 24.6791 22.0643 26.5362C22.2715 27.2115 22.0643 27.718 21.8571 28.3933ZM31.3872 29.4062C30.1442 29.7439 29.1083 30.4192 28.2796 31.2633C27.4509 32.2763 26.0007 32.9516 24.3432 32.7827C23.5145 32.7827 22.6858 32.2763 22.4787 31.601C22.2715 30.588 22.2715 29.575 22.893 28.5621C23.1002 27.8868 23.3074 27.3803 23.5145 26.705C23.7217 24.6791 23.7217 23.4973 24.7576 22.9908C24.7576 23.835 25.3791 24.3415 26.2078 24.6791C27.2437 24.6791 28.2796 24.5103 29.1083 23.835H29.5227C30.1442 23.835 30.5585 23.835 30.9729 24.1726C31.3872 24.5103 31.5944 25.0168 31.5944 25.3544C31.5944 25.8609 32.0088 26.3674 32.2159 26.8738C33.2518 27.718 33.2518 28.2244 33.2518 28.3933C33.0447 28.7309 32.2159 29.0686 31.3872 29.4062ZM12.7414 9.14715C12.5342 9.14715 12.5342 9.14715 12.5342 9.31598C12.5342 9.31598 12.5342 9.48481 12.7414 9.48481C12.9485 9.48481 12.9485 9.65363 12.9485 9.65363C13.5701 10.3289 14.6059 10.6666 15.849 10.8354C16.8849 10.6666 17.9208 10.4978 18.9566 9.82246L20.1997 9.31598C20.4069 9.31598 20.4069 9.14715 20.4069 9.14715C20.4069 8.97833 20.4069 8.97833 20.1997 8.97833C19.7854 9.14715 19.1638 9.31598 18.7495 9.48481C17.9208 9.99128 16.8849 10.3289 15.849 10.3289C14.8131 10.3289 13.9844 9.82246 13.3629 9.31598C13.1557 9.31598 12.9485 9.14715 12.7414 9.14715Z" fill="black"/>
</svg>
