<svg width="32" height="32" viewBox="0 0 32 32" fill="none" xmlns="http://www.w3.org/2000/svg">
<g clip-path="url(#clip0_11_4140)">
<path d="M17.4185 8.91334L18.4118 8.50534C19.2185 8.18534 20.2611 7.85867 21.4918 8.06534C24.0131 8.48934 25.7518 9.85067 26.7878 11.656C27.1878 12.352 26.8651 13.2693 26.1185 13.5613C25.4788 13.8116 24.932 14.2532 24.5528 14.8259C24.1736 15.3986 23.9806 16.0745 24 16.7611C24.0194 17.4476 24.2503 18.1115 24.6612 18.6619C25.0722 19.2122 25.643 19.6223 26.2958 19.836C26.9865 20.0627 27.3758 20.8293 27.1491 21.52C26.5598 23.3093 25.7118 24.9613 24.7078 26.2947C23.7158 27.612 22.5051 28.7053 21.1571 29.24C20.2611 29.5947 19.3038 29.4533 18.3865 29.2227L17.8425 29.076L17.0625 28.8587L16.6371 28.7533C16.4284 28.7013 16.2148 28.6713 15.9998 28.664C15.8265 28.664 15.6198 28.696 15.3625 28.7533L14.9358 28.86L13.8865 29.1507C12.8891 29.4213 11.8278 29.6307 10.8425 29.24C9.14512 28.568 7.64779 27 6.51579 25.1507C5.29178 23.1134 4.48334 20.854 4.13712 18.5027C3.83445 16.4307 3.99845 14.104 4.95712 12.136C5.94378 10.108 7.75179 8.52934 10.5078 8.06534C11.6278 7.87734 12.5905 8.12934 13.3611 8.41867L13.8025 8.59201L14.5811 8.91334C15.1145 9.12267 15.5345 9.24534 15.9998 9.24534C16.4638 9.24534 16.8851 9.12267 17.4185 8.91334ZM13.5865 11.3893L13.1225 11.1987C12.1478 10.7907 11.6051 10.5853 10.9491 10.6947C9.09312 11.008 7.98778 12.004 7.35445 13.304C6.69312 14.6613 6.52778 16.4133 6.77578 18.1173C7.07978 20.1947 7.82778 22.184 8.79045 23.76C9.77445 25.3667 10.8851 26.3893 11.8238 26.76C12.1438 26.8867 12.6038 26.7867 13.0305 26.656L13.6211 26.4613L13.7838 26.4107L14.3611 26.2507C14.8758 26.1173 15.4558 25.9973 15.9998 25.9973C16.5425 25.9973 17.1238 26.1173 17.6385 26.2507L18.2158 26.4107L18.3785 26.4613L18.9691 26.656C19.3958 26.7867 19.8558 26.8867 20.1758 26.76C20.9051 26.472 21.7531 25.784 22.5758 24.6907C23.1891 23.8773 23.7491 22.888 24.2065 21.788C23.3288 21.2521 22.6036 20.4997 22.1004 19.6029C21.5973 18.7061 21.333 17.695 21.3331 16.6667C21.3331 14.7373 22.2425 13.024 23.6531 11.9267C23.0225 11.3267 22.1771 10.8853 21.0505 10.6947C20.4598 10.596 19.9611 10.752 19.1571 11.0827L18.8771 11.1987C18.1558 11.5013 17.1758 11.912 15.9998 11.912C15.0598 11.912 14.2438 11.6493 13.5865 11.3893ZM15.6905 3.69067C16.9918 2.38801 18.9905 2.27601 19.4611 2.74801C19.9331 3.21867 19.8211 5.21734 18.5185 6.51867C17.2171 7.82001 15.2185 7.93201 14.7478 7.46134C14.2758 6.99067 14.3878 4.99201 15.6905 3.69067Z" fill="black"/>
</g>
<defs>
<clipPath id="clip0_11_4140">
<rect width="32" height="32" fill="white"/>
</clipPath>
</defs>
</svg>
