<svg width="1287" height="1176" viewBox="0 0 1287 1176" fill="none" xmlns="http://www.w3.org/2000/svg">
<g clip-path="url(#clip0_7_488)">
<g clip-path="url(#clip1_7_488)">
<path fill-rule="evenodd" clip-rule="evenodd" d="M0 679.785L420.444 0H0V679.785Z" fill="url(#paint0_linear_7_488)"/>
<path fill-rule="evenodd" clip-rule="evenodd" d="M1231.11 1176L1197.33 738.585H1280V1176H1231.11Z" fill="url(#paint1_linear_7_488)"/>
<path fill-rule="evenodd" clip-rule="evenodd" d="M1280 35.8537L0 910.683V927.893L381.333 1176H1280V35.8537Z" fill="url(#paint2_linear_7_488)"/>
<path fill-rule="evenodd" clip-rule="evenodd" d="M1280 998.166L0 444.585V202.215L164.444 0H1280V998.166Z" fill="url(#paint3_linear_7_488)"/>
<path fill-rule="evenodd" clip-rule="evenodd" d="M707.742 1176H0.186829V0H157.52L707.742 1176Z" fill="url(#paint4_linear_7_488)"/>
</g>
</g>
<defs>
<linearGradient id="paint0_linear_7_488" x1="-3544.4" y1="-11980.7" x2="34456.8" y2="15221.2" gradientUnits="userSpaceOnUse">
<stop stop-opacity="0.01"/>
<stop offset="1" stop-opacity="0.02"/>
</linearGradient>
<linearGradient id="paint1_linear_7_488" x1="5330.67" y1="738.585" x2="25278.9" y2="20398.4" gradientUnits="userSpaceOnUse">
<stop stop-opacity="0.01"/>
<stop offset="1" stop-opacity="0.04"/>
</linearGradient>
<linearGradient id="paint2_linear_7_488" x1="76065.4" y1="50558.5" x2="93195" y2="76323.1" gradientUnits="userSpaceOnUse">
<stop stop-opacity="0.02"/>
<stop offset="1" stop-opacity="0"/>
</linearGradient>
<linearGradient id="paint3_linear_7_488" x1="99356.8" y1="34355.8" x2="84501.9" y2="59875.9" gradientUnits="userSpaceOnUse">
<stop stop-opacity="0.05"/>
<stop offset="1" stop-opacity="0.01"/>
</linearGradient>
<linearGradient id="paint4_linear_7_488" x1="-952.947" y1="50428.5" x2="76144.1" y2="80356.6" gradientUnits="userSpaceOnUse">
<stop stop-opacity="0.02"/>
<stop offset="1" stop-opacity="0.03"/>
</linearGradient>
<clipPath id="clip0_7_488">
<rect width="1280" height="1176" fill="white"/>
</clipPath>
<clipPath id="clip1_7_488">
<rect width="1280" height="1176" fill="white"/>
</clipPath>
</defs>
</svg>
