<svg width="31" height="30" viewBox="0 0 31 30" fill="none" xmlns="http://www.w3.org/2000/svg">
<g clip-path="url(#clip0_11_4136)">
<path d="M22 13V20.434C22 20.6354 21.9594 20.8348 21.8807 21.0202C21.8019 21.2056 21.6867 21.3733 21.5417 21.5132C21.3968 21.6531 21.2252 21.7623 21.0371 21.8345C20.849 21.9066 20.6483 21.9401 20.447 21.933L20.314 21.922L13 21.008V13H22ZM11 13V20.758L5.752 20.102C5.26821 20.0415 4.82316 19.8064 4.50052 19.4409C4.17789 19.0753 3.99989 18.6045 4 18.117V13H11ZM20.314 2.07798C20.5139 2.05301 20.7167 2.06855 20.9105 2.12368C21.1042 2.1788 21.2849 2.27239 21.4416 2.39884C21.5984 2.5253 21.7281 2.68204 21.823 2.85971C21.9179 3.03738 21.9761 3.23235 21.994 3.43298L22 3.56598V11H13V2.99198L20.314 2.07798ZM11 3.24198V11H4V5.88298C3.99989 5.39542 4.17789 4.92461 4.50052 4.55907C4.82316 4.19353 5.26821 3.95843 5.752 3.89798L11 3.24198Z" fill="black"/>
</g>
<defs>
<clipPath id="clip0_11_4136">
<rect width="24" height="24" fill="white" transform="translate(1)"/>
</clipPath>
</defs>
</svg>
